<mxfile host="drawio-plugin" modified="2022-02-21T16:05:11.643Z" agent="5.0 (Macintosh; Intel Mac OS X 12_2_1) AppleWebKit/537.36 (KHTML, like Gecko) Chrome/89.0.4389.114 Safari/537.36" etag="g-H3HvdYmnt5LBEjhXw3" version="15.5.4" type="embed" pages="2"><diagram id="F44mslXG7EauhRFhVprv" name="Page-2"><mxGraphModel dx="901" dy="437" grid="1" gridSize="10" guides="1" tooltips="1" connect="1" arrows="1" fold="1" page="1" pageScale="1" pageWidth="850" pageHeight="1100" math="0" shadow="0"><root><mxCell id="AAQ9BwyIkS6VjVYWZHyZ-0"/><mxCell id="AAQ9BwyIkS6VjVYWZHyZ-1" parent="AAQ9BwyIkS6VjVYWZHyZ-0"/><mxCell id="AAQ9BwyIkS6VjVYWZHyZ-2" value="" style="edgeStyle=orthogonalEdgeStyle;rounded=0;orthogonalLoop=1;jettySize=auto;html=1;sketch=1;" parent="AAQ9BwyIkS6VjVYWZHyZ-1" source="AAQ9BwyIkS6VjVYWZHyZ-4" target="AAQ9BwyIkS6VjVYWZHyZ-7" edge="1"><mxGeometry relative="1" as="geometry"/></mxCell><mxCell id="AAQ9BwyIkS6VjVYWZHyZ-3" value="shapes" style="edgeLabel;html=1;align=center;verticalAlign=middle;resizable=0;points=[];sketch=1;" parent="AAQ9BwyIkS6VjVYWZHyZ-2" vertex="1" connectable="0"><mxGeometry x="0.2667" y="-4" relative="1" as="geometry"><mxPoint x="-13" y="-4" as="offset"/></mxGeometry></mxCell><mxCell id="AAQ9BwyIkS6VjVYWZHyZ-4" value="DOMAIN" style="rounded=0;whiteSpace=wrap;html=1;sketch=1;" parent="AAQ9BwyIkS6VjVYWZHyZ-1" vertex="1"><mxGeometry x="49" y="240" width="120" height="60" as="geometry"/></mxCell><mxCell id="AAQ9BwyIkS6VjVYWZHyZ-5" value="" style="edgeStyle=orthogonalEdgeStyle;rounded=0;orthogonalLoop=1;jettySize=auto;html=1;sketch=1;" parent="AAQ9BwyIkS6VjVYWZHyZ-1" source="AAQ9BwyIkS6VjVYWZHyZ-7" target="AAQ9BwyIkS6VjVYWZHyZ-10" edge="1"><mxGeometry relative="1" as="geometry"/></mxCell><mxCell id="AAQ9BwyIkS6VjVYWZHyZ-6" value="build" style="edgeLabel;html=1;align=center;verticalAlign=middle;resizable=0;points=[];sketch=1;" parent="AAQ9BwyIkS6VjVYWZHyZ-5" vertex="1" connectable="0"><mxGeometry x="-0.275" relative="1" as="geometry"><mxPoint x="5" as="offset"/></mxGeometry></mxCell><mxCell id="AAQ9BwyIkS6VjVYWZHyZ-7" value="TEAM" style="rounded=0;whiteSpace=wrap;html=1;sketch=1;" parent="AAQ9BwyIkS6VjVYWZHyZ-1" vertex="1"><mxGeometry x="259" y="240" width="120" height="60" as="geometry"/></mxCell><mxCell id="AAQ9BwyIkS6VjVYWZHyZ-8" value="" style="edgeStyle=orthogonalEdgeStyle;rounded=0;orthogonalLoop=1;jettySize=auto;html=1;sketch=1;" parent="AAQ9BwyIkS6VjVYWZHyZ-1" source="AAQ9BwyIkS6VjVYWZHyZ-10" target="AAQ9BwyIkS6VjVYWZHyZ-11" edge="1"><mxGeometry relative="1" as="geometry"/></mxCell><mxCell id="AAQ9BwyIkS6VjVYWZHyZ-9" value="generate" style="edgeLabel;html=1;align=center;verticalAlign=middle;resizable=0;points=[];sketch=1;" parent="AAQ9BwyIkS6VjVYWZHyZ-8" vertex="1" connectable="0"><mxGeometry x="-0.1" y="-2" relative="1" as="geometry"><mxPoint x="4" y="-2" as="offset"/></mxGeometry></mxCell><mxCell id="AAQ9BwyIkS6VjVYWZHyZ-10" value="SOFTWARE" style="rounded=0;whiteSpace=wrap;html=1;sketch=1;" parent="AAQ9BwyIkS6VjVYWZHyZ-1" vertex="1"><mxGeometry x="459" y="240" width="120" height="60" as="geometry"/></mxCell><mxCell id="AAQ9BwyIkS6VjVYWZHyZ-11" value="DATA" style="rounded=0;whiteSpace=wrap;html=1;sketch=1;" parent="AAQ9BwyIkS6VjVYWZHyZ-1" vertex="1"><mxGeometry x="659" y="240" width="120" height="60" as="geometry"/></mxCell><mxCell id="AAQ9BwyIkS6VjVYWZHyZ-12" value="Strategic&#10;Domain-driven Design" style="text;whiteSpace=wrap;align=center;fontColor=default;sketch=1;" parent="AAQ9BwyIkS6VjVYWZHyZ-1" vertex="1"><mxGeometry x="44" y="310" width="130" height="40" as="geometry"/></mxCell><mxCell id="AAQ9BwyIkS6VjVYWZHyZ-13" value="Autonomous&#10;Domain Teams" style="text;whiteSpace=wrap;align=center;sketch=1;" parent="AAQ9BwyIkS6VjVYWZHyZ-1" vertex="1"><mxGeometry x="259" y="310" width="121" height="40" as="geometry"/></mxCell><mxCell id="AAQ9BwyIkS6VjVYWZHyZ-14" value="Self-contained Systems /&#10;Microservices" style="text;whiteSpace=wrap;align=center;sketch=1;" parent="AAQ9BwyIkS6VjVYWZHyZ-1" vertex="1"><mxGeometry x="440" y="310" width="160" height="40" as="geometry"/></mxCell><mxCell id="AAQ9BwyIkS6VjVYWZHyZ-15" value="Data Mesh" style="text;whiteSpace=wrap;align=center;sketch=1;" parent="AAQ9BwyIkS6VjVYWZHyZ-1" vertex="1"><mxGeometry x="660" y="315" width="120" height="30" as="geometry"/></mxCell></root></mxGraphModel></diagram><diagram id="27UEhvcbevQ5RNf_Fo5W" name="Status Quo"><mxGraphModel dx="1030" dy="441" grid="1" gridSize="10" guides="1" tooltips="1" connect="1" arrows="1" fold="1" page="1" pageScale="1" pageWidth="827" pageHeight="1169" math="0" shadow="0"><root><mxCell id="0"/><mxCell id="1" parent="0"/><mxCell id="4" value="" style="edgeStyle=orthogonalEdgeStyle;rounded=0;orthogonalLoop=1;jettySize=auto;html=1;" parent="1" source="2" target="3" edge="1"><mxGeometry relative="1" as="geometry"/></mxCell><mxCell id="9" value="define" style="edgeLabel;html=1;align=center;verticalAlign=middle;resizable=0;points=[];" parent="4" vertex="1" connectable="0"><mxGeometry x="0.2667" y="-4" relative="1" as="geometry"><mxPoint x="-13" y="-4" as="offset"/></mxGeometry></mxCell><mxCell id="2" value="Strategic&lt;br&gt;Domain-driven Design" style="rounded=0;whiteSpace=wrap;html=1;" parent="1" vertex="1"><mxGeometry x="50" y="380" width="120" height="60" as="geometry"/></mxCell><mxCell id="6" value="" style="edgeStyle=orthogonalEdgeStyle;rounded=0;orthogonalLoop=1;jettySize=auto;html=1;" parent="1" source="3" target="5" edge="1"><mxGeometry relative="1" as="geometry"/></mxCell><mxCell id="10" value="build" style="edgeLabel;html=1;align=center;verticalAlign=middle;resizable=0;points=[];" parent="6" vertex="1" connectable="0"><mxGeometry x="-0.275" relative="1" as="geometry"><mxPoint x="5" as="offset"/></mxGeometry></mxCell><mxCell id="3" value="Autonomous &lt;br&gt;Domain Teams" style="rounded=0;whiteSpace=wrap;html=1;" parent="1" vertex="1"><mxGeometry x="260" y="380" width="120" height="60" as="geometry"/></mxCell><mxCell id="8" value="" style="edgeStyle=orthogonalEdgeStyle;rounded=0;orthogonalLoop=1;jettySize=auto;html=1;" parent="1" source="5" target="7" edge="1"><mxGeometry relative="1" as="geometry"/></mxCell><mxCell id="11" value="generate" style="edgeLabel;html=1;align=center;verticalAlign=middle;resizable=0;points=[];" parent="8" vertex="1" connectable="0"><mxGeometry x="-0.1" y="-2" relative="1" as="geometry"><mxPoint x="4" y="-2" as="offset"/></mxGeometry></mxCell><mxCell id="5" value="Self-contained Systems /&lt;br&gt;Microservices" style="rounded=0;whiteSpace=wrap;html=1;" parent="1" vertex="1"><mxGeometry x="460" y="380" width="120" height="60" as="geometry"/></mxCell><mxCell id="7" value="Data Mesh" style="rounded=0;whiteSpace=wrap;html=1;" parent="1" vertex="1"><mxGeometry x="660" y="380" width="120" height="60" as="geometry"/></mxCell><mxCell id="12" value="STRATEGY" style="text;html=1;strokeColor=none;fillColor=none;align=center;verticalAlign=middle;whiteSpace=wrap;rounded=0;" parent="1" vertex="1"><mxGeometry x="80" y="350" width="60" height="30" as="geometry"/></mxCell><mxCell id="13" value="ORGANIZATION" style="text;html=1;strokeColor=none;fillColor=none;align=center;verticalAlign=middle;whiteSpace=wrap;rounded=0;" parent="1" vertex="1"><mxGeometry x="290" y="350" width="60" height="30" as="geometry"/></mxCell><mxCell id="14" value="SOFTWARE" style="text;html=1;strokeColor=none;fillColor=none;align=center;verticalAlign=middle;whiteSpace=wrap;rounded=0;" parent="1" vertex="1"><mxGeometry x="490" y="350" width="60" height="30" as="geometry"/></mxCell><mxCell id="15" value="DATA" style="text;html=1;strokeColor=none;fillColor=none;align=center;verticalAlign=middle;whiteSpace=wrap;rounded=0;" parent="1" vertex="1"><mxGeometry x="690" y="350" width="60" height="30" as="geometry"/></mxCell></root></mxGraphModel></diagram></mxfile>